<svg id="mimizuku" data-name="mimizuku" xmlns="http://www.w3.org/2000/svg" viewBox="0 0 67.9 76.21"><defs><style>.cls-1{fill:#3c3c3c;}.cls-2{fill:#fafafa;}.cls-3{fill:#0075b9;}</style></defs><title> mimizuku</title><path class="cls-1" d="M65.65,0c-9.22,6.12-10,13-10,13A38.6,38.6,0,0,0,33.95,6.13,38.6,38.6,0,0,0,12.27,13s-1.41-7.62-10-13c0,0-7.51,14.53,4.94,17.68A39.89,39.89,0,0,0,.52,39.77C.52,55,6.13,68.69,8.41,70.27c0,0,2.28-1.58,2.63-6.66,0,0,1.4,2.1,2.63,2.45a13.76,13.76,0,0,1,1.67-3,26.93,26.93,0,0,0,6.22,2.25c.13,1.28.31,2.79.55,4.15a8.38,8.38,0,0,0-6.38,3.7,1,1,0,0,0,1.74,1,6.26,6.26,0,0,1,4.18-2.61,6.36,6.36,0,0,0-.88,3.68,1,1,0,0,0,1,.93h.07a1,1,0,0,0,.93-1.07,4.94,4.94,0,0,1,1.09-3.3l.29-.46a6.65,6.65,0,0,1,2.14-.05,1,1,0,0,0,.29-2,9.14,9.14,0,0,0-2.46,0c-.21-1.12-.37-2.38-.49-3.52A49.2,49.2,0,0,0,43.38,66c-.12,1.1-.28,2.28-.47,3.34a9.16,9.16,0,0,0-2.46,0,1,1,0,1,0,.29,2,6.78,6.78,0,0,1,2.13.05l.29.46a4.94,4.94,0,0,1,1.09,3.3,1,1,0,0,0,.93,1.07h.07a1,1,0,0,0,1-.93,6.33,6.33,0,0,0-.83-3.59,6.18,6.18,0,0,1,4.12,2.5,1,1,0,0,0,1.76-1c-.07-.13-1.67-3-6.41-3.68.23-1.3.41-2.73.53-4a29.14,29.14,0,0,0,7.12-2.47,13.76,13.76,0,0,1,1.67,3c1.23-.35,2.63-2.45,2.63-2.45.35,5.08,2.63,6.66,2.63,6.66,2.28-1.58,7.89-15.25,7.89-30.5a39.89,39.89,0,0,0-6.66-22.09C73.16,14.53,65.65,0,65.65,0Z"/><path class="cls-2" d="M40.66,30.52c-.64-4.87,3.48-9,8.87-8.62a8.16,8.16,0,0,1,7.88,8.68,8.07,8.07,0,0,1-7.78,6.93C45.33,37.73,41.22,34.8,40.66,30.52Z"/><circle class="cls-3" cx="49.11" cy="29.81" r="4.87"/><path class="cls-2" d="M28.37,30.52c.64-4.87-3.48-9-8.87-8.62a8.16,8.16,0,0,0-7.88,8.68,8.07,8.07,0,0,0,7.78,6.93C23.71,37.73,27.81,34.8,28.37,30.52Z"/><circle class="cls-3" cx="19.93" cy="29.81" r="4.87"/><path class="cls-2" d="M30.84,25.79S31.2,41.13,34.3,42c3.11-.91,3.46-16.25,3.46-16.25Z"/><path class="cls-1" d="M55.26,21.87s-3,4.84-20.79,4.84-20.79-4.84-20.79-4.84V18.09H55.26Z"/></svg>
